<?xml version="1.0" encoding="utf-8"?>
<!-- Generator: Adobe Illustrator 26.4.1, SVG Export Plug-In . SVG Version: 6.00 Build 0)  -->
<svg version="1.1" id="Layer_1" xmlns="http://www.w3.org/2000/svg" xmlns:xlink="http://www.w3.org/1999/xlink" x="0px" y="0px"
	 viewBox="0 0 500 93" style="enable-background:new 0 0 500 93;" xml:space="preserve">
<style type="text/css">
	.st0{fill:#D33D26;}
	.st1{fill:#CECECE;}
	.st2{fill:#FFFFFF;}
</style>
<g>
	<g>
		<g>
			<path d="M109.63,71.79c-4.24,0-7.94-0.98-11.1-2.94c-3.16-1.96-5.62-4.81-7.35-8.54c-1.74-3.73-2.61-8.16-2.61-13.29
				c0-5.19,0.87-9.62,2.61-13.29c1.74-3.67,4.19-6.5,7.35-8.49c3.16-1.99,6.86-2.99,11.1-2.99c4.18,0,7.81,1.04,10.91,3.13
				c3.1,2.09,5.16,4.93,6.17,8.54h-1.04l0.95-10.82h9.3c-0.19,1.96-0.37,3.91-0.52,5.84c-0.16,1.93-0.24,3.81-0.24,5.65v36.35h-9.59
				V60.31h1.04c-1.01,3.54-3.08,6.34-6.22,8.4C117.27,70.76,113.68,71.79,109.63,71.79z M112,64.29c4.11,0,7.42-1.45,9.92-4.36
				c2.5-2.91,3.75-7.21,3.75-12.91c0-5.69-1.25-9.98-3.75-12.86c-2.5-2.88-5.8-4.32-9.92-4.32c-4.17,0-7.51,1.44-10.01,4.32
				c-2.5,2.88-3.75,7.16-3.75,12.86c0,5.69,1.23,10,3.7,12.91C104.41,62.84,107.76,64.29,112,64.29z"/>
			<path d="M162.96,71.79c-4.81,0-9-1-12.57-2.99c-3.57-1.99-6.33-4.87-8.26-8.64c-1.93-3.76-2.89-8.24-2.89-13.43
				c0-5.12,0.98-9.52,2.94-13.19c1.96-3.67,4.71-6.47,8.26-8.4c3.54-1.93,7.72-2.89,12.53-2.89c3.1,0,6.1,0.52,9.02,1.57
				c2.91,1.04,5.31,2.51,7.21,4.41l-3.13,6.74c-1.77-1.71-3.77-2.99-5.98-3.84c-2.22-0.85-4.36-1.28-6.45-1.28
				c-4.56,0-8.13,1.46-10.72,4.37c-2.59,2.91-3.89,7.12-3.89,12.62c0,5.57,1.3,9.84,3.89,12.81c2.59,2.97,6.17,4.46,10.72,4.46
				c2.02,0,4.14-0.4,6.36-1.19c2.21-0.79,4.24-2.07,6.07-3.84l3.13,6.74c-1.96,1.9-4.41,3.37-7.35,4.41
				C168.89,71.27,165.93,71.79,162.96,71.79z"/>
			<path d="M202.25,71.79c-4.81,0-9-1-12.57-2.99c-3.57-1.99-6.33-4.87-8.26-8.64c-1.93-3.76-2.89-8.24-2.89-13.43
				c0-5.12,0.98-9.52,2.94-13.19c1.96-3.67,4.71-6.47,8.26-8.4c3.54-1.93,7.72-2.89,12.53-2.89c3.1,0,6.1,0.52,9.02,1.57
				c2.91,1.04,5.31,2.51,7.21,4.41l-3.13,6.74c-1.77-1.71-3.77-2.99-5.98-3.84c-2.22-0.85-4.36-1.28-6.45-1.28
				c-4.56,0-8.13,1.46-10.72,4.37c-2.59,2.91-3.89,7.12-3.89,12.62c0,5.57,1.3,9.84,3.89,12.81c2.59,2.97,6.17,4.46,10.72,4.46
				c2.02,0,4.14-0.4,6.36-1.19c2.21-0.79,4.24-2.07,6.07-3.84l3.13,6.74c-1.96,1.9-4.41,3.37-7.35,4.41
				C208.18,71.27,205.22,71.79,202.25,71.79z"/>
			<path d="M242.67,71.79c-7.72,0-13.79-2.18-18.22-6.55c-4.43-4.36-6.64-10.41-6.64-18.13c0-5,0.96-9.36,2.89-13.1
				c1.93-3.73,4.62-6.63,8.07-8.68c3.45-2.05,7.45-3.08,12-3.08c4.49,0,8.26,0.95,11.29,2.85c3.04,1.9,5.35,4.57,6.93,8.02
				c1.58,3.45,2.37,7.51,2.37,12.19v3.04h-36.06v-5.5h29.51l-1.61,1.23c0-4.75-1.06-8.43-3.18-11.06c-2.12-2.62-5.17-3.94-9.16-3.94
				c-4.43,0-7.84,1.53-10.25,4.6c-2.41,3.07-3.61,7.29-3.61,12.67v0.95c0,5.63,1.38,9.87,4.13,12.72c2.75,2.85,6.66,4.27,11.72,4.27
				c2.78,0,5.39-0.39,7.83-1.19c2.43-0.79,4.76-2.1,6.97-3.94l3.13,6.55c-2.21,1.96-4.9,3.46-8.07,4.51
				C249.57,71.27,246.21,71.79,242.67,71.79z"/>
			<path d="M281.67,71.79c-3.99,0-7.66-0.51-11.01-1.52c-3.35-1.01-6.14-2.43-8.35-4.27l2.94-6.55c2.34,1.77,4.94,3.1,7.78,3.99
				c2.85,0.89,5.76,1.33,8.73,1.33c3.48,0,6.1-0.62,7.88-1.85c1.77-1.23,2.66-2.93,2.66-5.08c0-1.64-0.56-2.97-1.66-3.98
				c-1.11-1.01-2.93-1.77-5.46-2.28l-9.11-1.8c-4.05-0.89-7.12-2.4-9.21-4.56c-2.09-2.15-3.13-4.9-3.13-8.26
				c0-2.85,0.77-5.38,2.32-7.59c1.55-2.21,3.76-3.95,6.64-5.22c2.88-1.26,6.25-1.9,10.11-1.9c3.54,0,6.83,0.51,9.87,1.52
				c3.04,1.01,5.57,2.47,7.59,4.37l-3.04,6.36c-1.96-1.64-4.18-2.93-6.64-3.84c-2.47-0.92-4.97-1.38-7.5-1.38
				c-3.54,0-6.17,0.66-7.88,1.99c-1.71,1.33-2.56,3.07-2.56,5.22c0,1.65,0.52,2.99,1.57,4.03c1.04,1.04,2.7,1.85,4.98,2.42l9.11,1.8
				c4.3,0.89,7.53,2.34,9.68,4.36c2.15,2.03,3.23,4.75,3.23,8.16c0,2.97-0.82,5.57-2.47,7.78c-1.65,2.22-3.92,3.89-6.83,5.03
				C289.01,71.22,285.6,71.79,281.67,71.79z"/>
			<path d="M321.81,71.79c-3.99,0-7.66-0.51-11.01-1.52c-3.35-1.01-6.14-2.43-8.35-4.27l2.94-6.55c2.34,1.77,4.94,3.1,7.78,3.99
				c2.85,0.89,5.76,1.33,8.73,1.33c3.48,0,6.1-0.62,7.88-1.85c1.77-1.23,2.66-2.93,2.66-5.08c0-1.64-0.56-2.97-1.66-3.98
				c-1.11-1.01-2.93-1.77-5.46-2.28l-9.11-1.8c-4.05-0.89-7.12-2.4-9.21-4.56c-2.09-2.15-3.13-4.9-3.13-8.26
				c0-2.85,0.77-5.38,2.32-7.59c1.55-2.21,3.76-3.95,6.64-5.22c2.88-1.26,6.25-1.9,10.11-1.9c3.54,0,6.83,0.51,9.87,1.52
				c3.04,1.01,5.57,2.47,7.59,4.37l-3.04,6.36c-1.96-1.64-4.18-2.93-6.64-3.84c-2.47-0.92-4.97-1.38-7.5-1.38
				c-3.54,0-6.17,0.66-7.88,1.99c-1.71,1.33-2.56,3.07-2.56,5.22c0,1.65,0.52,2.99,1.57,4.03c1.04,1.04,2.7,1.85,4.98,2.42l9.11,1.8
				c4.3,0.89,7.53,2.34,9.68,4.36c2.15,2.03,3.23,4.75,3.23,8.16c0,2.97-0.82,5.57-2.47,7.78c-1.65,2.22-3.92,3.89-6.83,5.03
				C329.15,71.22,325.74,71.79,321.81,71.79z"/>
		</g>
		<g>
			<path d="M348.97,91.84v-57.7c0-1.64-0.08-3.32-0.24-5.03c-0.16-1.71-0.33-3.45-0.52-5.22h3.89l0.95,12.43h-1.14
				c1.07-4.11,3.18-7.34,6.31-9.68c3.13-2.34,6.97-3.51,11.53-3.51c4.3,0,8.02,0.98,11.15,2.94c3.13,1.96,5.57,4.76,7.31,8.4
				c1.74,3.64,2.61,8.02,2.61,13.14c0,5.06-0.85,9.43-2.56,13.1c-1.71,3.67-4.14,6.49-7.31,8.45c-3.16,1.96-6.9,2.94-11.2,2.94
				c-4.56,0-8.4-1.17-11.53-3.51c-3.13-2.34-5.24-5.57-6.31-9.68h1.04v32.93H348.97z M369.75,68.4c5.19,0,9.32-1.79,12.38-5.36
				c3.07-3.57,4.6-8.71,4.6-15.42c0-6.7-1.53-11.85-4.6-15.42c-3.07-3.57-7.2-5.36-12.38-5.36c-5.19,0-9.3,1.79-12.34,5.36
				c-3.04,3.57-4.56,8.72-4.56,15.42c0,6.71,1.52,11.85,4.56,15.42C360.45,66.61,364.56,68.4,369.75,68.4z"/>
			<path d="M398.51,11.46V5.48h6.07v5.98H398.51z M399.55,71.34V23.89h3.99v47.45H399.55z"/>
			<path d="M415.49,71.34V1.5h3.99v69.84H415.49z"/>
			<path d="M449.27,72.1c-4.3,0-8.03-0.98-11.2-2.94c-3.16-1.96-5.6-4.78-7.31-8.45c-1.71-3.67-2.56-8.03-2.56-13.1
				c0-5.06,0.85-9.43,2.56-13.1c1.71-3.67,4.14-6.48,7.31-8.45c3.16-1.96,6.89-2.94,11.2-2.94c4.3,0,8.03,0.98,11.2,2.94
				c3.16,1.96,5.61,4.78,7.35,8.45c1.74,3.67,2.61,8.04,2.61,13.1c0,5.06-0.87,9.43-2.61,13.1c-1.74,3.67-4.19,6.49-7.35,8.45
				C457.31,71.12,453.58,72.1,449.27,72.1z M449.27,68.4c5.19,0,9.33-1.79,12.43-5.36c3.1-3.57,4.65-8.71,4.65-15.42
				c0-6.7-1.55-11.85-4.65-15.42c-3.1-3.57-7.24-5.36-12.43-5.36c-5.19,0-9.32,1.79-12.38,5.36c-3.07,3.57-4.6,8.72-4.6,15.42
				c0,6.71,1.53,11.85,4.6,15.42C439.96,66.61,444.08,68.4,449.27,68.4z"/>
			<path d="M492.55,72.1c-3.86,0-6.82-1.22-8.87-3.65c-2.06-2.44-3.08-6.15-3.08-11.15V27.31h-9.49v-3.42h9.49V10.32l3.99-1.52
				v15.09H499v3.42h-14.42v29.13c0,4.18,0.65,7.21,1.95,9.11c1.3,1.9,3.4,2.85,6.31,2.85c1.27,0,2.4-0.13,3.42-0.38
				c1.01-0.25,1.87-0.54,2.56-0.85v3.8c-0.7,0.32-1.63,0.58-2.8,0.81C494.84,71.99,493.69,72.1,492.55,72.1z"/>
		</g>
	</g>
	<g>
		<path class="st0" d="M70.18,27.2c-3.19-6.98-8.69-11.77-15.92-14.49c-2.09-0.88-4.21-1.64-6.49-1.83
			c-2.09-0.65-4.25-0.82-6.42-0.88c0,0,0,0,0,0c-2.2-0.16-4.4-0.19-6.6,0.02c-1.83-0.1-3.59,0.32-5.37,0.61
			c-2.69,0.29-5.24,1.1-7.73,2.1c-8.23,3.4-13.92,9.31-17.08,17.6C0.57,40.81,0,51.56,2.52,62.46c0.78,3.39,1.76,6.75,3.82,9.66
			c0.63,1.77,1.69,3.24,3,4.59c0.57-0.61,0.38-1.17,0.34-1.7C9.5,72.13,8.69,69.37,8,66.59C6.58,60.8,5.34,55,5.59,48.98
			c0.28-6.93,3.6-11.6,10.12-14.01c5.02-1.85,10.28-2.34,15.55-2.8c9.31-0.82,18.5-0.14,27.52,2.26c5.96,1.58,10.18,5.1,11.48,11.46
			c0.43,2.13,0.37,4.27,0.32,6.42c-0.14,5.83-1.69,11.41-3.06,17.03c-0.58,2.4-1.35,4.82-0.82,7.79c1.25-1.8,2.53-3.08,3.13-4.83
			c0.69-0.67,0.99-1.57,1.34-2.42C76.95,55.51,76.6,41.22,70.18,27.2z"/>
		<path class="st1" d="M37.08,31.48C44.6,31.5,50.95,32,57.17,33.56c3.4,0.86,7.84,2.06,9.98,5.1c1.31,1.87,3.68,4.14,4.01,6.32
			c0.15,0.95-0.3,1.14-1.17,0.87c-1.6-0.48-6.29-1.18-7.58-2.24c-5.82-4.81-12.57-6.87-20.03-6.82c-5.49,0.03-11.01-0.38-16.44,0.89
			c-4.03,0.94-7.68,2.68-10.9,5.28c-1.55,1.25-6.41,2.3-8.35,2.87c-1.21,0.35-1.44-0.02-1.3-1.17c0.71-5.98,7.54-9.28,13.07-10.83
			C24.91,32.03,31.53,31.52,37.08,31.48z"/>
		<path class="st1" d="M62.94,70.33c0.33-5.71,1.25-11.25,4.37-16.22c0.66-1.05,1.52-1.88,2.41-2.7c0.36-0.32,0.81-0.78,1.29-0.47
			c0.37,0.24,0.18,0.82,0.13,1.25c-0.46,4.1-1.25,8.15-2.27,12.15c-0.98,3.84-2.03,8-1.99,12c0.01,1.23-0.6,0.93-1.45,0.51
			c-1.08-0.54-1.87-1.36-2.12-2.59C63.05,72.98,62.84,71.67,62.94,70.33z"/>
		<path class="st1" d="M13.56,70.29c0.06,1.38-0.04,2.74-0.34,4.1c-0.15,0.67-0.38,1.28-0.91,1.71c-0.64,0.51-1.38,1.17-2.2,0.91
			c-0.97-0.08-1.58-1.34-1.6-2.04c-0.11-4.44-1.09-8.07-2.13-12.33c-0.79-3.26-0.57-7.13-1-10.45c-0.06-0.43-0.24-1,0.15-1.24
			c0.5-0.32,0.92,0.23,1.28,0.51c2.66,2.03,3.96,4.97,4.95,8.01C12.89,62.96,13.55,66.58,13.56,70.29z"/>
		<path class="st2" d="M47.75,10.91c0,6.26,0,12.53,0,18.79c-2.16-0.15-4.31-0.3-6.47-0.44c0.02-6.41,0.04-12.82,0.06-19.23
			C43.51,10.09,45.66,10.26,47.75,10.91z"/>
		<path class="st2" d="M34.76,29.17c-1.98,0.32-3.34,0.32-5.69,0.49c-0.58,0.04-0.6-0.52-0.6-0.96c-0.01-5.55,0.01-11.1-0.02-16.64
			c0-0.74,0.38-1.09,0.92-1.4c1.78-0.3,3.55-0.72,5.37-0.61C34.75,16.42,34.75,22.79,34.76,29.17z"/>
		<path class="st0" d="M34.76,29.17c-0.01-6.37-0.01-12.75-0.02-19.12c2.2-0.21,4.4-0.17,6.6-0.02c-0.02,6.41-0.04,12.82-0.06,19.23
			C39.11,29.23,36.93,29.2,34.76,29.17z"/>
		<g>
			<path d="M38.09,65.73c0.15,0.19,0.3,0.37,0.44,0.55c0.87,1.06,1.86,2,3.05,2.7c1.49,0.88,3.09,1.25,4.81,1.07
				c1.4-0.15,2.69-0.62,3.91-1.3c1.29-0.72,2.44-1.62,3.49-2.64c0.69-0.67,1.34-1.39,1.94-2.14c0.05-0.06,0.1-0.13,0.14-0.2
				c-0.05,0.04-0.09,0.09-0.14,0.13c-0.62,0.59-1.31,1.09-2.12,1.39c-0.88,0.32-1.77,0.33-2.67,0.12c-0.95-0.23-1.81-0.65-2.66-1.1
				c-0.88-0.47-1.76-0.96-2.65-1.42c-0.74-0.38-1.52-0.67-2.34-0.83c-1.16-0.22-2.26-0.08-3.33,0.43c-0.66,0.31-1.24,0.73-1.78,1.21
				c-0.02,0.02-0.05,0.04-0.07,0.06h0c-0.02-0.02-0.05-0.04-0.07-0.06c-0.55-0.48-1.13-0.9-1.78-1.21
				c-1.06-0.51-2.17-0.64-3.33-0.43c-0.82,0.16-1.6,0.45-2.34,0.83c-0.89,0.46-1.77,0.95-2.65,1.42c-0.85,0.46-1.71,0.88-2.66,1.1
				c-0.9,0.22-1.79,0.2-2.67-0.12c-0.82-0.3-1.5-0.8-2.12-1.39c-0.05-0.04-0.09-0.09-0.14-0.13c0.04,0.08,0.09,0.14,0.14,0.2
				c0.6,0.75,1.24,1.47,1.94,2.14c1.06,1.02,2.2,1.93,3.49,2.64c1.22,0.68,2.51,1.16,3.91,1.3c1.72,0.18,3.32-0.2,4.81-1.07
				c1.19-0.7,2.18-1.64,3.05-2.7c0.15-0.18,0.29-0.36,0.44-0.55H38.09z"/>
		</g>
		<path d="M31.29,32.17c-5.27,0.47-10.54,0.95-15.55,2.8c-6.52,2.4-9.84,7.08-10.12,14.01C5.38,55,6.62,60.8,8.04,66.59
			c0.68,2.78,1.49,5.54,1.68,8.41c0.03,0.53,0.23,1.1-0.34,1.7c-1.31-1.35-2.38-2.82-3-4.59c-0.13-2.93-0.95-5.75-1.56-8.59
			C3.73,58.4,2.57,53.29,3.04,47.99c0.59-6.66,3.66-11.67,9.81-14.6c2.4-1.14,4.95-1.84,7.56-2.3c1.18-0.21,8.12-1.42,8.71-1.45
			c0,0,6.26-1.11,18.02,0c0.58,0.05,7.53,1.25,8.71,1.45c2.61,0.46,5.16,1.16,7.56,2.3c6.15,2.93,9.22,7.94,9.81,14.6
			c0.47,5.3-0.69,10.41-1.78,15.53c-0.6,2.85-1.42,5.66-1.56,8.59c-0.63,1.77-1.69,3.24-3,4.59c-0.57-0.61-0.38-1.17-0.34-1.7
			c0.19-2.88,0.99-5.63,1.68-8.41c1.43-5.79,2.66-11.59,2.42-17.61c-0.28-6.93-3.6-11.6-10.12-14.01
			c-5.02-1.85-10.28-2.34-15.55-2.8C44.97,32.17,38.84,31.47,31.29,32.17z"/>
	</g>
</g>
</svg>
