<?xml version="1.0" encoding="utf-8"?>
<!-- Generator: Adobe Illustrator 26.4.1, SVG Export Plug-In . SVG Version: 6.00 Build 0)  -->
<svg version="1.1" id="Layer_1" xmlns="http://www.w3.org/2000/svg" xmlns:xlink="http://www.w3.org/1999/xlink" x="0px" y="0px"
	 viewBox="0 0 506 93" style="enable-background:new 0 0 506 93;" xml:space="preserve">
<style type="text/css">
	.st0{fill:#FFFFFF;}
	.st1{fill:#D33D26;}
	.st2{fill:#CECECE;}
</style>
<g>
	<g>
		<g>
			<path class="st0" d="M114.6,71.7c-4.2,0-7.9-1-11.1-2.9c-3.2-2-5.6-4.8-7.3-8.5c-1.7-3.7-2.6-8.2-2.6-13.3
				c0-5.2,0.9-9.6,2.6-13.3s4.2-6.5,7.3-8.5c3.2-2,6.9-3,11.1-3s7.8,1,10.9,3.1c3.1,2.1,5.2,4.9,6.2,8.5h-1l0.9-10.8h9.3
				c-0.2,2-0.4,3.9-0.5,5.8c-0.2,1.9-0.2,3.8-0.2,5.7v36.4h-9.6V60.1h1c-1,3.5-3.1,6.3-6.2,8.4C122.3,70.7,118.7,71.7,114.6,71.7z
				 M117,64.2c4.1,0,7.4-1.5,9.9-4.4c2.5-2.9,3.8-7.2,3.8-12.9s-1.2-10-3.8-12.9c-2.6-2.9-5.8-4.3-9.9-4.3c-4.2,0-7.5,1.4-10,4.3
				s-3.8,7.2-3.8,12.9s1.2,10,3.7,12.9C109.4,62.6,112.8,64.2,117,64.2z"/>
			<path class="st0" d="M168,71.7c-4.8,0-9-1-12.6-3s-6.3-4.9-8.3-8.6c-1.9-3.8-2.9-8.2-2.9-13.4c0-5.1,1-9.5,2.9-13.2
				s4.7-6.5,8.3-8.4c3.5-1.9,7.7-2.9,12.5-2.9c3.1,0,6.1,0.5,9,1.6c2.9,1,5.3,2.5,7.2,4.4l-3.1,6.7c-1.8-1.7-3.8-3-6-3.8
				c-2.2-0.9-4.4-1.3-6.4-1.3c-4.6,0-8.1,1.5-10.7,4.4s-3.9,7.1-3.9,12.6c0,5.6,1.3,9.8,3.9,12.8s6.2,4.5,10.7,4.5
				c2,0,4.1-0.4,6.4-1.2c2.2-0.8,4.2-2.1,6.1-3.8l3.1,6.7c-2,1.9-4.4,3.4-7.4,4.4C173.9,71.2,170.9,71.7,168,71.7z"/>
			<path class="st0" d="M207.2,71.7c-4.8,0-9-1-12.6-3s-6.3-4.9-8.3-8.6c-1.9-3.8-2.9-8.2-2.9-13.4c0-5.1,1-9.5,2.9-13.2
				s4.7-6.5,8.3-8.4c3.5-1.9,7.7-2.9,12.5-2.9c3.1,0,6.1,0.5,9,1.6c2.9,1,5.3,2.5,7.2,4.4l-3.1,6.7c-1.8-1.7-3.8-3-6-3.8
				c-2.2-0.9-4.4-1.3-6.4-1.3c-4.6,0-8.1,1.5-10.7,4.4s-3.9,7.1-3.9,12.6c0,5.6,1.3,9.8,3.9,12.8s6.2,4.5,10.7,4.5
				c2,0,4.1-0.4,6.4-1.2c2.2-0.8,4.2-2.1,6.1-3.8l3.1,6.7c-2,1.9-4.4,3.4-7.4,4.4C213.2,71.2,210.2,71.7,207.2,71.7z"/>
			<path class="st0" d="M247.7,71.7c-7.7,0-13.8-2.2-18.2-6.6s-6.6-10.4-6.6-18.1c0-5,1-9.4,2.9-13.1c1.9-3.7,4.6-6.6,8.1-8.7
				s7.4-3.1,12-3.1c4.5,0,8.3,1,11.3,2.9c3,1.9,5.3,4.6,6.9,8c1.6,3.5,2.4,7.5,2.4,12.2v3h-36.1v-5.5h29.5l-1.6,1.2
				c0-4.8-1.1-8.4-3.2-11.1c-2.1-2.6-5.2-3.9-9.2-3.9c-4.4,0-7.8,1.5-10.2,4.6s-3.7,7.4-3.7,12.7v1c0,5.6,1.4,9.9,4.1,12.7
				c2.8,2.8,6.7,4.3,11.7,4.3c2.8,0,5.4-0.4,7.8-1.2c2.4-0.8,4.8-2.1,7-3.9l3.1,6.6c-2.2,2-4.9,3.5-8.1,4.5
				C254.6,71.2,251.2,71.7,247.7,71.7z"/>
			<path class="st0" d="M286.7,71.7c-4,0-7.7-0.5-11-1.5c-3.4-1-6.1-2.4-8.4-4.3l2.9-6.5c2.3,1.8,4.9,3.1,7.8,4s5.8,1.3,8.7,1.3
				c3.5,0,6.1-0.6,7.9-1.8s2.7-2.9,2.7-5.1c0-1.6-0.6-3-1.7-4s-2.9-1.8-5.5-2.3l-9.1-1.8c-4-0.9-7.1-2.4-9.2-4.6
				c-2.1-2.2-3.1-4.9-3.1-8.3c0-2.8,0.8-5.4,2.3-7.6s3.8-4,6.6-5.2c2.9-1.3,6.2-1.9,10.1-1.9c3.5,0,6.8,0.5,9.9,1.5s5.6,2.5,7.6,4.4
				l-3,6.4c-2-1.6-4.2-2.9-6.6-3.8c-2.5-0.9-5-1.4-7.5-1.4c-3.5,0-6.2,0.7-7.9,2c-1.7,1.3-2.6,3.1-2.6,5.2c0,1.7,0.5,3,1.6,4
				c1,1,2.7,1.8,5,2.4l9.1,1.8c4.3,0.9,7.5,2.3,9.7,4.4c2.1,2,3.2,4.8,3.2,8.2c0,3-0.8,5.6-2.5,7.8c-1.6,2.2-3.9,3.9-6.8,5
				C294,71,290.6,71.7,286.7,71.7z"/>
			<path class="st0" d="M326.8,71.7c-4,0-7.7-0.5-11-1.5c-3.4-1-6.1-2.4-8.4-4.3l2.9-6.5c2.3,1.8,4.9,3.1,7.8,4s5.8,1.3,8.7,1.3
				c3.5,0,6.1-0.6,7.9-1.8s2.7-2.9,2.7-5.1c0-1.6-0.6-3-1.7-4s-2.9-1.8-5.5-2.3l-9.1-1.8c-4-0.9-7.1-2.4-9.2-4.6
				c-2.1-2.2-3.1-4.9-3.1-8.3c0-2.8,0.8-5.4,2.3-7.6s3.8-4,6.6-5.2c2.9-1.3,6.2-1.9,10.1-1.9c3.5,0,6.8,0.5,9.9,1.5s5.6,2.5,7.6,4.4
				l-3,6.4c-2-1.6-4.2-2.9-6.6-3.8c-2.5-0.9-5-1.4-7.5-1.4c-3.5,0-6.2,0.7-7.9,2c-1.7,1.3-2.6,3.1-2.6,5.2c0,1.7,0.5,3,1.6,4
				c1,1,2.7,1.8,5,2.4l9.1,1.8c4.3,0.9,7.5,2.3,9.7,4.4c2.1,2,3.2,4.8,3.2,8.2c0,3-0.8,5.6-2.5,7.8c-1.6,2.2-3.9,3.9-6.8,5
				C334.1,71,330.7,71.7,326.8,71.7z"/>
		</g>
		<g>
			<path class="st0" d="M354,91.7V33.9c0-1.6-0.1-3.3-0.2-5s-0.3-3.5-0.5-5.2h3.9l1,12.4h-1.1c1.1-4.1,3.2-7.3,6.3-9.7
				s7-3.5,11.5-3.5c4.3,0,8,1,11.1,2.9s5.6,4.8,7.3,8.4s2.6,8,2.6,13.1s-0.9,9.4-2.6,13.1s-4.1,6.5-7.3,8.4c-3.2,2-6.9,2.9-11.2,2.9
				c-4.6,0-8.4-1.2-11.5-3.5s-5.2-5.6-6.3-9.7h1v32.9C358,91.7,354,91.7,354,91.7z M374.8,68.2c5.2,0,9.3-1.8,12.4-5.4
				s4.6-8.7,4.6-15.4s-1.5-11.8-4.6-15.4s-7.2-5.4-12.4-5.4c-5.2,0-9.3,1.8-12.3,5.4s-4.6,8.7-4.6,15.4s1.5,11.8,4.6,15.4
				C365.6,66.4,369.6,68.2,374.8,68.2z"/>
			<path class="st0" d="M403.5,11.3v-6h6.1v6H403.5z M404.5,71.2V23.7h4v47.4H404.5z"/>
			<path class="st0" d="M420.5,71.2V1.3h4v69.8H420.5z"/>
			<path class="st0" d="M454.3,71.9c-4.3,0-8-1-11.2-2.9c-3.2-2-5.6-4.8-7.3-8.5s-2.6-8-2.6-13.1s0.9-9.4,2.6-13.1s4.1-6.5,7.3-8.5
				c3.2-2,6.9-2.9,11.2-2.9c4.3,0,8,1,11.2,2.9c3.2,2,5.6,4.8,7.4,8.5c1.7,3.7,2.6,8,2.6,13.1s-0.9,9.4-2.6,13.1s-4.2,6.5-7.4,8.4
				C462.3,70.9,458.6,71.9,454.3,71.9z M454.3,68.2c5.2,0,9.3-1.8,12.4-5.4s4.6-8.7,4.6-15.4s-1.5-11.8-4.6-15.4s-7.2-5.4-12.4-5.4
				s-9.3,1.8-12.4,5.4s-4.6,8.7-4.6,15.4s1.5,11.8,4.6,15.4C445,66.4,449.1,68.2,454.3,68.2z"/>
			<path class="st0" d="M497.5,71.9c-3.9,0-6.8-1.2-8.9-3.7c-2.1-2.4-3.1-6.2-3.1-11.2V27H476v-3.4h9.5V10.1l4-1.5v15.1H504v3.4
				h-14.4v29.1c0,4.2,0.6,7.2,2,9.1c1.3,1.9,3.4,2.8,6.3,2.8c1.3,0,2.4-0.1,3.4-0.4c1-0.2,1.9-0.5,2.6-0.8v3.9
				c-0.7,0.3-1.6,0.6-2.8,0.8C499.8,71.8,498.7,71.9,497.5,71.9z"/>
		</g>
	</g>
	<g>
		<path class="st1" d="M68.2,26.7c-3.1-6.9-8.6-11.6-15.7-14.3c-2.1-0.9-4.2-1.6-6.4-1.8c-2-0.6-4.1-0.8-6.3-0.8l0,0
			c-2.2-0.2-4.3-0.2-6.5,0c-1.8-0.1-3.5,0.3-5.3,0.6c-2.7,0.3-5.2,1.1-7.6,2.1c-8.1,3.3-13.8,9.2-16.9,17.3c-3.9,10.4-4.5,21-2,31.7
			c0.8,3.3,1.7,6.7,3.8,9.5c0.6,1.7,1.7,3.2,3,4.5c0.6-0.6,0.4-1.2,0.3-1.7c-0.2-2.8-1-5.6-1.7-8.3c-1.4-5.7-2.6-11.4-2.4-17.4
			c0.3-6.8,3.5-11.4,10-13.8c4.9-1.8,10.1-2.3,15.3-2.8c9.2-0.7,18.3,0,27.2,2.4c5.9,1.6,10,5,11.3,11.3c0.4,2.1,0.4,4.2,0.3,6.3
			c-0.1,5.8-1.7,11.3-3,16.8c-0.6,2.4-1.3,4.8-0.8,7.7c1.2-1.8,2.5-3,3.1-4.8c0.7-0.7,1-1.6,1.3-2.4C74.9,54.8,74.6,40.6,68.2,26.7z
			"/>
		<path class="st2" d="M35.6,31c7.4,0,13.7,0.5,19.8,2.1c3.4,0.8,7.7,2,9.8,5c1.3,1.8,3.6,4.1,4,6.2c0.1,0.9-0.3,1.1-1.2,0.9
			c-1.6-0.5-6.2-1.2-7.5-2.2c-5.7-4.7-12.4-6.8-19.8-6.7c-5.4,0-10.9-0.4-16.2,0.9c-4,0.9-7.6,2.6-10.8,5.2
			c-1.5,1.2-6.3,2.3-8.2,2.8c-1.2,0.3-1.4,0-1.3-1.2c0.8-5.9,7.6-9.2,13-10.7C23.6,31.5,30.1,31,35.6,31z"/>
		<path class="st2" d="M61.1,69.3c0.3-5.6,1.2-11.1,4.3-16c0.7-1,1.5-1.9,2.4-2.7c0.4-0.3,0.8-0.8,1.3-0.5c0.4,0.2,0.2,0.8,0.1,1.2
			c-0.5,4-1.2,8-2.2,12c-1,3.8-2,7.9-2,11.8c0,1.2-0.6,0.9-1.4,0.5c-1.1-0.5-1.8-1.3-2.1-2.6C61.2,71.9,61,70.7,61.1,69.3z"/>
		<path class="st2" d="M12.4,69.2c0.1,1.4,0,2.7-0.3,4c-0.1,0.7-0.4,1.3-0.9,1.7c-0.6,0.5-1.4,1.2-2.2,0.9c-1-0.1-1.6-1.3-1.6-2
			c-0.1-4.4-1.1-8-2.1-12.2c-0.8-3.2-0.6-7-1-10.3c-0.1-0.4-0.2-1,0.1-1.2c0.6-0.3,1,0.3,1.3,0.6c2.6,2,3.9,4.9,4.9,7.9
			C11.7,62,12.4,65.7,12.4,69.2z"/>
		<path class="st0" d="M46.1,10.7c0,6.2,0,12.4,0,18.5c-2.1-0.1-4.3-0.3-6.4-0.4c0-6.3,0-12.6,0.1-19C41.9,9.9,44.1,10,46.1,10.7z"
			/>
		<path class="st0" d="M33.3,28.7c-2,0.3-3.3,0.3-5.6,0.5c-0.6,0-0.6-0.5-0.6-0.9c0-5.5,0-10.9,0-16.4c0-0.7,0.4-1.1,0.9-1.4
			c1.8-0.3,3.5-0.7,5.3-0.6C33.3,16.1,33.3,22.4,33.3,28.7z"/>
		<path d="M33.3,28.7c0-6.3,0-12.6,0-18.9c2.2-0.2,4.3-0.2,6.5,0c0,6.3,0,12.6-0.1,19C37.6,28.7,35.5,28.7,33.3,28.7z"/>
		<g>
			<path class="st0" d="M36.6,64.8c0.1,0.2,0.3,0.4,0.4,0.5c0.9,1.1,1.8,2,3,2.7c1.5,0.9,3,1.2,4.7,1.1c1.4-0.1,2.7-0.6,3.9-1.3
				c1.3-0.7,2.4-1.6,3.4-2.6c0.7-0.7,1.3-1.4,1.9-2.1c0-0.1,0.1-0.1,0.1-0.2l-0.1,0.1c-0.6,0.6-1.3,1.1-2.1,1.4
				c-0.9,0.3-1.7,0.3-2.6,0.1c-0.9-0.2-1.8-0.6-2.6-1.1c-0.9-0.5-1.7-1-2.6-1.4c-0.7-0.4-1.5-0.7-2.3-0.8c-1.1-0.2-2.2-0.1-3.3,0.4
				c-0.6,0.3-1.2,0.7-1.8,1.2c0,0,0,0-0.1,0.1l0,0c0,0,0,0-0.1-0.1c-0.5-0.5-1.1-0.9-1.8-1.2c-1-0.5-2.1-0.6-3.3-0.4
				c-0.8,0.2-1.6,0.4-2.3,0.8c-0.9,0.5-1.7,0.9-2.6,1.4c-0.8,0.4-1.7,0.9-2.6,1.1s-1.8,0.2-2.6-0.1c-0.8-0.3-1.5-0.8-2.1-1.4
				L19,62.8c0,0.1,0.1,0.1,0.1,0.2c0.6,0.7,1.2,1.5,1.9,2.1c1,1,2.2,1.9,3.4,2.6c1.2,0.7,2.5,1.1,3.9,1.3c1.7,0.2,3.3-0.2,4.7-1.1
				c1.2-0.7,2.1-1.6,3-2.7C36.3,65.2,36.5,64.9,36.6,64.8L36.6,64.8z"/>
		</g>
		<path d="M29.9,31.6c-5.2,0.5-10.4,0.9-15.3,2.8c-6.4,2.4-9.7,7-10,13.8c-0.2,5.9,1,11.7,2.4,17.4c0.7,2.7,1.5,5.5,1.7,8.3
			c0,0.5,0.2,1.1-0.3,1.7c-1.3-1.3-2.3-2.8-3-4.5c-0.1-2.9-0.9-5.7-1.5-8.5C2.7,57.5,1.6,52.5,2,47.2c0.6-6.6,3.6-11.5,9.7-14.4
			c2.4-1.1,4.9-1.8,7.5-2.3c1.2-0.2,8-1.4,8.6-1.4c0,0,6.2-1.1,17.8,0c0.6,0.1,7.4,1.2,8.6,1.4c2.6,0.5,5.1,1.1,7.5,2.3
			c6.1,2.9,9.1,7.8,9.7,14.4c0.5,5.2-0.7,10.3-1.8,15.3c-0.6,2.8-1.4,5.6-1.5,8.5c-0.6,1.7-1.7,3.2-3,4.5c-0.6-0.6-0.4-1.2-0.3-1.7
			c0.2-2.8,1-5.6,1.7-8.3c1.4-5.7,2.6-11.4,2.4-17.4c-0.3-6.8-3.5-11.4-10-13.8C54,32.5,48.8,32,43.6,31.5
			C43.4,31.6,37.3,31,29.9,31.6z"/>
	</g>
</g>
</svg>
