<?xml version="1.0" encoding="utf-8"?>
<!-- Generator: Adobe Illustrator 26.4.1, SVG Export Plug-In . SVG Version: 6.00 Build 0)  -->
<svg version="1.1" id="Layer_1" xmlns="http://www.w3.org/2000/svg" xmlns:xlink="http://www.w3.org/1999/xlink" x="0px" y="0px"
	 viewBox="0 0 129.3 116" style="enable-background:new 0 0 129.3 116;" xml:space="preserve">
<style type="text/css">
	.st0{fill:#D33D26;}
	.st1{fill:#CECECE;}
	.st2{fill:#FFFFFF;}
</style>
<g>
	<path class="st0" d="M118.3,30.4c-5.4-11.9-14.8-20-27.1-24.6c-3.6-1.5-7.2-2.8-11-3.1C76.7,1.6,73,1.3,69.3,1.2c0,0,0,0,0,0
		c-3.7-0.3-7.5-0.3-11.2,0C55,1,52,1.8,49,2.3c-4.6,0.5-8.9,1.9-13.2,3.6c-14,5.8-23.7,15.8-29,29.9C0,53.6-1,71.8,3.3,90.4
		c1.3,5.8,3,11.5,6.5,16.4c1.1,3,2.9,5.5,5.1,7.8c1-1,0.6-2,0.6-2.9c-0.3-4.9-1.7-9.6-2.9-14.3c-2.4-9.8-4.5-19.7-4.1-30
		C9,55.7,14.6,47.7,25.7,43.6c8.5-3.1,17.5-4,26.4-4.8C68,37.5,83.6,38.6,99,42.7c10.1,2.7,17.3,8.7,19.5,19.5
		c0.7,3.6,0.6,7.3,0.5,10.9c-0.2,9.9-2.9,19.4-5.2,29c-1,4.1-2.3,8.2-1.4,13.2c2.1-3.1,4.3-5.2,5.3-8.2c1.2-1.1,1.7-2.7,2.3-4.1
		C129.9,78.6,129.3,54.3,118.3,30.4z"/>
	<path class="st1" d="M62.1,37.7c12.8,0,23.6,0.9,34.2,3.5c5.8,1.5,13.3,3.5,17,8.7c2.2,3.2,6.3,7,6.8,10.8c0.2,1.6-0.5,1.9-2,1.5
		c-2.7-0.8-10.7-2-12.9-3.8c-9.9-8.2-21.4-11.7-34.1-11.6c-9.3,0.1-18.7-0.6-28,1.5c-6.9,1.6-13.1,4.6-18.5,9
		c-2.6,2.1-10.9,3.9-14.2,4.9c-2.1,0.6-2.4,0-2.2-2C9.3,50,21,44.4,30.4,41.7C41.4,38.6,52.6,37.8,62.1,37.7z"/>
	<path class="st1" d="M106,103.8c0.6-9.7,2.1-19.1,7.4-27.6c1.1-1.8,2.6-3.2,4.1-4.6c0.6-0.6,1.4-1.3,2.2-0.8
		c0.6,0.4,0.3,1.4,0.2,2.1c-0.8,7-2.1,13.9-3.9,20.7c-1.7,6.5-3.4,13.6-3.4,20.4c0,2.1-1,1.6-2.5,0.9c-1.8-0.9-3.2-2.3-3.6-4.4
		C106.2,108.3,105.9,106.1,106,103.8z"/>
	<path class="st1" d="M22.1,103.7c0.1,2.3-0.1,4.7-0.6,7c-0.3,1.1-0.6,2.2-1.6,2.9c-1.1,0.9-2.3,2-3.7,1.5c-1.6-0.1-2.7-2.3-2.7-3.5
		c-0.2-7.6-1.9-13.7-3.6-21c-1.3-5.5-1-12.1-1.7-17.8c-0.1-0.7-0.4-1.7,0.2-2.1c0.9-0.5,1.6,0.4,2.2,0.9c4.5,3.5,6.7,8.4,8.4,13.6
		C20.9,91.2,22,97.4,22.1,103.7z"/>
	<path class="st2" d="M80.2,2.7c0,10.7,0,21.3,0,32c-3.7-0.3-7.3-0.5-11-0.8c0-10.9,0.1-21.8,0.1-32.7C73,1.3,76.7,1.6,80.2,2.7z"/>
	<path class="st2" d="M58.1,33.8c-3.4,0.5-5.7,0.5-9.7,0.8c-1,0.1-1-0.9-1-1.6c0-9.4,0-18.9,0-28.3c0-1.3,0.6-1.9,1.6-2.4
		c3-0.5,6-1.2,9.1-1C58.1,12.1,58.1,22.9,58.1,33.8z"/>
	<path d="M58.1,33.8c0-10.8,0-21.7,0-32.5c3.7-0.4,7.5-0.3,11.2,0c0,10.9-0.1,21.8-0.1,32.7C65.5,33.9,61.8,33.8,58.1,33.8z"/>
	<g>
		<path d="M63.8,95.9c0.3,0.3,0.5,0.6,0.8,0.9c1.5,1.8,3.2,3.4,5.2,4.6c2.5,1.5,5.3,2.1,8.2,1.8c2.4-0.2,4.6-1.1,6.6-2.2
			c2.2-1.2,4.1-2.8,5.9-4.5c1.2-1.1,2.3-2.4,3.3-3.6c0.1-0.1,0.2-0.2,0.2-0.3c-0.1,0.1-0.2,0.1-0.2,0.2c-1.1,1-2.2,1.9-3.6,2.4
			c-1.5,0.5-3,0.6-4.5,0.2c-1.6-0.4-3.1-1.1-4.5-1.9c-1.5-0.8-3-1.6-4.5-2.4c-1.3-0.6-2.6-1.1-4-1.4c-2-0.4-3.9-0.1-5.7,0.7
			c-1.1,0.5-2.1,1.2-3,2.1c0,0-0.1,0.1-0.1,0.1h0c0,0-0.1-0.1-0.1-0.1c-0.9-0.8-1.9-1.5-3-2.1c-1.8-0.9-3.7-1.1-5.7-0.7
			c-1.4,0.3-2.7,0.8-4,1.4c-1.5,0.8-3,1.6-4.5,2.4C45,94.3,43.6,95,42,95.4c-1.5,0.4-3,0.3-4.5-0.2c-1.4-0.5-2.6-1.4-3.6-2.4
			c-0.1-0.1-0.2-0.1-0.2-0.2c0.1,0.1,0.1,0.2,0.2,0.3c1,1.3,2.1,2.5,3.3,3.6c1.8,1.7,3.7,3.3,5.9,4.5c2.1,1.2,4.3,2,6.6,2.2
			c2.9,0.3,5.7-0.3,8.2-1.8c2-1.2,3.7-2.8,5.2-4.6C63.3,96.6,63.6,96.3,63.8,95.9L63.8,95.9z"/>
	</g>
	<path d="M52.2,38.9c-9,0.8-17.9,1.6-26.4,4.8C14.7,47.7,9,55.7,8.6,67.5c-0.4,10.2,1.7,20.1,4.1,30c1.2,4.7,2.5,9.4,2.9,14.3
		c0.1,0.9,0.4,1.9-0.6,2.9c-2.2-2.3-4-4.8-5.1-7.8c-0.2-5-1.6-9.8-2.6-14.6c-1.8-8.7-3.8-17.4-3-26.4c1-11.3,6.2-19.8,16.7-24.8
		c4.1-1.9,8.4-3.1,12.9-3.9c2-0.4,13.8-2.4,14.8-2.5c0,0,10.6-1.9,30.6,0c1,0.1,12.8,2.1,14.8,2.5c4.4,0.8,8.8,2,12.9,3.9
		c10.5,5,15.7,13.5,16.7,24.8c0.8,9-1.2,17.7-3,26.4c-1,4.8-2.4,9.6-2.6,14.6c-1.1,3-2.9,5.5-5.1,7.8c-1-1-0.6-2-0.6-2.9
		c0.3-4.9,1.7-9.6,2.9-14.3c2.4-9.8,4.5-19.7,4.1-30c-0.5-11.8-6.1-19.7-17.2-23.8c-8.5-3.1-17.5-4-26.4-4.8
		C75.5,38.9,65,37.7,52.2,38.9z"/>
</g>
</svg>
